# xmcd CD database file
#
# Track frame offsets:
#	150
#	9172
#	21042
#	39157
#	47490
#	65090
#	78885
#	95937
#	111610
#	122022
#	135532
#	144312
#	156857
#	172677
#
# Disc length: 2467 seconds
#
# Revision: 0
# Processed by: cddbd v1.4PL0 Copyright (c) Steve Scherf et al.
# Submitted via: CDex 1.50Beta7
#
DISCID=ac09a10e
DTITLE=Billie Holiday - Good Morning Heartache
DYEAR=1949
DGENRE=Jazz
TTITLE0=Miss Brown to You
TTITLE1=Loverman
TTITLE2=I Wonder Where Our Love Has Gone
TTITLE3=Them There Eyes
TTITLE4=I Love My Man
TTITLE5=YOu Aint Gonna Bother Me No More
TTITLE6=Good Morning Heartache
TTITLE7=Maybe Youll Be There
TTITLE8=Detour Ahead
TTITLE9=I Cover the Waterfront
TTITLE10=All of Me
TTITLE11=Keeps On a-Rainin
TTITLE12=Fine and Mellow
TTITLE13=I Love You Porgy
EXTD=YEAR: 1949
EXTT0=
EXTT1=
EXTT2=
EXTT3=
EXTT4=
EXTT5=
EXTT6=
EXTT7=
EXTT8=
EXTT9=
EXTT10=
EXTT11=
EXTT12=
EXTT13=
PLAYORDER=
